<svg width="32" height="32" viewBox="0 0 32 32" fill="none" xmlns="http://www.w3.org/2000/svg">
<path fill-rule="evenodd" clip-rule="evenodd" d="M21.4708 7.31955C21.0448 7.74557 21.0448 8.4363 21.4708 8.86232L22.1566 9.54816H19.8151C18.3733 9.54816 17.0016 10.215 16.0522 11.3776L7.94266 21.3076C7.37299 22.0052 6.55001 22.4053 5.68493 22.4053H5V24.5482H5.68493C7.12674 24.5482 8.49837 23.8813 9.44781 22.7187L17.5573 12.7887C18.127 12.0911 18.95 11.691 19.8151 11.691H22.4991L21.4708 12.7193C21.0448 13.1453 21.0448 13.836 21.4708 14.262C21.8968 14.6881 22.5876 14.6881 23.0136 14.262L26.1313 11.1444C26.3265 10.9491 26.3265 10.6325 26.1313 10.4372L23.0136 7.31955C22.5876 6.89352 21.8968 6.89352 21.4708 7.31955ZM6.36879 8.54816C7.76049 8.54816 9.08446 9.1941 10.0009 10.3202L12.4531 13.1728L11 14.5482L8.54806 11.687C7.9982 11.0114 7.20381 10.6238 6.36879 10.6238H5.00043V8.54816H6.36879ZM16.3284 20.7761C17.2449 21.9022 18.5688 22.5482 19.9605 22.5482H22.6419L21.4708 23.7193C21.0448 24.1453 21.0448 24.836 21.4708 25.262C21.8968 25.6881 22.5876 25.6881 23.0136 25.262L26.1313 22.1444C26.3265 21.9491 26.3265 21.6325 26.1313 21.4372L23.0136 18.3195C22.5876 17.8935 21.8968 17.8935 21.4708 18.3195C21.0448 18.7456 21.0448 19.4363 21.4708 19.8623L22.081 20.4725H19.9605C19.1255 20.4725 18.3311 20.085 17.7813 19.4093L16 17.0482L14.5 18.5482L16.3284 20.7761Z" fill="white"/>
</svg>
